<?xml version="1.0" encoding="UTF-8" standalone="no"?><svg xmlns="http://www.w3.org/2000/svg" xmlns:xlink="http://www.w3.org/1999/xlink" contentScriptType="application/ecmascript" contentStyleType="text/css" height="1204px" preserveAspectRatio="none" style="width:608px;height:1204px;" version="1.1" viewBox="0 0 608 1204" width="608px" zoomAndPan="magnify"><defs><filter height="300%" id="f1bg3grg7euiju" width="300%" x="-1" y="-1"><feGaussianBlur result="blurOut" stdDeviation="2.0"/><feColorMatrix in="blurOut" result="blurOut2" type="matrix" values="0 0 0 0 0 0 0 0 0 0 0 0 0 0 0 0 0 0 .4 0"/><feOffset dx="4.0" dy="4.0" in="blurOut2" result="blurOut3"/><feBlend in="SourceGraphic" in2="blurOut3" mode="normal"/></filter></defs><g><rect fill="#000000" filter="url(#f1bg3grg7euiju)" height="36.2969" rx="12.5" ry="12.5" style="stroke:#A80036;stroke-width:1.5;" width="85" x="10" y="582.9688"/><text fill="#FFFFFF" font-family="sans-serif" font-size="14" lengthAdjust="spacing" textLength="61" x="20" y="605.9639">Java Web</text><rect fill="#B22222" filter="url(#f1bg3grg7euiju)" height="36.2969" rx="12.5" ry="12.5" style="stroke:#A80036;stroke-width:1.5;" width="87" x="145" y="104.4453"/><text fill="#FFFFFF" font-family="sans-serif" font-size="14" lengthAdjust="spacing" textLength="55" x="155" y="127.4404">Servlets</text><rect fill="#FFA500" filter="url(#f1bg3grg7euiju)" height="36.2969" rx="12.5" ry="12.5" style="stroke:#A80036;stroke-width:1.5;" width="126" x="282" y="20"/><text fill="#000000" font-family="sans-serif" font-size="14" lengthAdjust="spacing" textLength="102" x="292" y="42.9951">Métodos HTTP</text><path d="M232,122.5938 L242,122.5938 C257,122.5938 257,38.1484 272,38.1484 L282,38.1484 " fill="none" style="stroke:#A80036;stroke-width:1.0;"/><rect fill="#FFA500" filter="url(#f1bg3grg7euiju)" height="36.2969" rx="12.5" ry="12.5" style="stroke:#A80036;stroke-width:1.5;" width="83" x="282" y="76.2969"/><text fill="#000000" font-family="sans-serif" font-size="14" lengthAdjust="spacing" textLength="59" x="292" y="99.292">Request</text><path d="M232,122.5938 L242,122.5938 C257,122.5938 257,94.4453 272,94.4453 L282,94.4453 " fill="none" style="stroke:#A80036;stroke-width:1.0;"/><rect fill="#FFA500" filter="url(#f1bg3grg7euiju)" height="36.2969" rx="12.5" ry="12.5" style="stroke:#A80036;stroke-width:1.5;" width="95" x="282" y="132.5938"/><text fill="#000000" font-family="sans-serif" font-size="14" lengthAdjust="spacing" textLength="71" x="292" y="155.5889">Response</text><path d="M232,122.5938 L242,122.5938 C257,122.5938 257,150.7422 272,150.7422 L282,150.7422 " fill="none" style="stroke:#A80036;stroke-width:1.0;"/><rect fill="#FFA500" filter="url(#f1bg3grg7euiju)" height="36.2969" rx="12.5" ry="12.5" style="stroke:#A80036;stroke-width:1.5;" width="198" x="282" y="188.8906"/><text fill="#000000" font-family="sans-serif" font-size="14" lengthAdjust="spacing" textLength="150" x="292" y="211.8857">Dispatch and Forward</text><path d="M232,122.5938 L242,122.5938 C257,122.5938 257,207.0391 272,207.0391 L282,207.0391 " fill="none" style="stroke:#A80036;stroke-width:1.0;"/><path d="M95,601.1172 L105,601.1172 C120,601.1172 120,122.5938 135,122.5938 L145,122.5938 " fill="none" style="stroke:#A80036;stroke-width:1.0;"/><rect fill="#B22222" filter="url(#f1bg3grg7euiju)" height="36.2969" rx="12.5" ry="12.5" style="stroke:#A80036;stroke-width:1.5;" width="53" x="145" y="498.5234"/><text fill="#FFFFFF" font-family="sans-serif" font-size="14" lengthAdjust="spacing" textLength="29" x="155" y="521.5186">J S P</text><rect fill="#FFA500" filter="url(#f1bg3grg7euiju)" height="36.2969" rx="12.5" ry="12.5" style="stroke:#A80036;stroke-width:1.5;" width="180" x="248" y="245.1875"/><text fill="#000000" font-family="sans-serif" font-size="14" lengthAdjust="spacing" textLength="148" x="258" y="268.1826">Expression Language</text><path d="M198,516.6719 L208,516.6719 C223,516.6719 223,263.3359 238,263.3359 L248,263.3359 " fill="none" style="stroke:#A80036;stroke-width:1.0;"/><rect fill="#FFA500" filter="url(#f1bg3grg7euiju)" height="36.2969" rx="12.5" ry="12.5" style="stroke:#A80036;stroke-width:1.5;" width="64" x="248" y="414.0781"/><text fill="#000000" font-family="sans-serif" font-size="14" lengthAdjust="spacing" textLength="40" x="258" y="437.0732">J S T L</text><rect fill="#CD5C5C" filter="url(#f1bg3grg7euiju)" height="36.2969" rx="12.5" ry="12.5" style="stroke:#A80036;stroke-width:1.5;" width="61" x="362" y="301.4844"/><text fill="#000000" font-family="sans-serif" font-size="14" lengthAdjust="spacing" textLength="33" x="372" y="324.4795">Core</text><path d="M312,432.2266 L322,432.2266 C337,432.2266 337,319.6328 352,319.6328 L362,319.6328 " fill="none" style="stroke:#A80036;stroke-width:1.0;"/><rect fill="#CD5C5C" filter="url(#f1bg3grg7euiju)" height="36.2969" rx="12.5" ry="12.5" style="stroke:#A80036;stroke-width:1.5;" width="88" x="362" y="357.7813"/><text fill="#000000" font-family="sans-serif" font-size="14" lengthAdjust="spacing" textLength="68" x="372" y="380.7764">Functions</text><path d="M312,432.2266 L322,432.2266 C337,432.2266 337,375.9297 352,375.9297 L362,375.9297 " fill="none" style="stroke:#A80036;stroke-width:1.0;"/><rect fill="#CD5C5C" filter="url(#f1bg3grg7euiju)" height="36.2969" rx="12.5" ry="12.5" style="stroke:#A80036;stroke-width:1.5;" width="55" x="362" y="414.0781"/><text fill="#000000" font-family="sans-serif" font-size="14" lengthAdjust="spacing" textLength="31" x="372" y="437.0732">I18N</text><path d="M312,432.2266 L322,432.2266 C337,432.2266 337,432.2266 352,432.2266 L362,432.2266 " fill="none" style="stroke:#A80036;stroke-width:1.0;"/><rect fill="#CD5C5C" filter="url(#f1bg3grg7euiju)" height="36.2969" rx="12.5" ry="12.5" style="stroke:#A80036;stroke-width:1.5;" width="51" x="362" y="470.375"/><text fill="#000000" font-family="sans-serif" font-size="14" lengthAdjust="spacing" textLength="27" x="372" y="493.3701">SQL</text><path d="M312,432.2266 L322,432.2266 C337,432.2266 337,488.5234 352,488.5234 L362,488.5234 " fill="none" style="stroke:#A80036;stroke-width:1.0;"/><rect fill="#CD5C5C" filter="url(#f1bg3grg7euiju)" height="36.2969" rx="12.5" ry="12.5" style="stroke:#A80036;stroke-width:1.5;" width="52" x="362" y="526.6719"/><text fill="#000000" font-family="sans-serif" font-size="14" lengthAdjust="spacing" textLength="28" x="372" y="549.667">XML</text><path d="M312,432.2266 L322,432.2266 C337,432.2266 337,544.8203 352,544.8203 L362,544.8203 " fill="none" style="stroke:#A80036;stroke-width:1.0;"/><path d="M198,516.6719 L208,516.6719 C223,516.6719 223,432.2266 238,432.2266 L248,432.2266 " fill="none" style="stroke:#A80036;stroke-width:1.0;"/><rect fill="#FFA500" filter="url(#f1bg3grg7euiju)" height="36.2969" rx="12.5" ry="12.5" style="stroke:#A80036;stroke-width:1.5;" width="91" x="248" y="582.9688"/><text fill="#000000" font-family="sans-serif" font-size="14" lengthAdjust="spacing" textLength="67" x="258" y="605.9639">Directivas</text><path d="M198,516.6719 L208,516.6719 C223,516.6719 223,601.1172 238,601.1172 L248,601.1172 " fill="none" style="stroke:#A80036;stroke-width:1.0;"/><rect fill="#FFA500" filter="url(#f1bg3grg7euiju)" height="36.2969" rx="12.5" ry="12.5" style="stroke:#A80036;stroke-width:1.5;" width="122" x="248" y="639.2656"/><text fill="#000000" font-family="sans-serif" font-size="14" lengthAdjust="spacing" textLength="98" x="258" y="662.2607">Declaraciones</text><path d="M198,516.6719 L208,516.6719 C223,516.6719 223,657.4141 238,657.4141 L248,657.4141 " fill="none" style="stroke:#A80036;stroke-width:1.0;"/><rect fill="#FFA500" filter="url(#f1bg3grg7euiju)" height="36.2969" rx="12.5" ry="12.5" style="stroke:#A80036;stroke-width:1.5;" width="88" x="248" y="695.5625"/><text fill="#000000" font-family="sans-serif" font-size="14" lengthAdjust="spacing" textLength="64" x="258" y="718.5576">Scriptlets</text><path d="M198,516.6719 L208,516.6719 C223,516.6719 223,713.7109 238,713.7109 L248,713.7109 " fill="none" style="stroke:#A80036;stroke-width:1.0;"/><rect fill="#FFA500" filter="url(#f1bg3grg7euiju)" height="36.2969" rx="12.5" ry="12.5" style="stroke:#A80036;stroke-width:1.5;" width="116" x="248" y="751.8594"/><text fill="#000000" font-family="sans-serif" font-size="14" lengthAdjust="spacing" textLength="84" x="258" y="774.8545">Expressions</text><path d="M198,516.6719 L208,516.6719 C223,516.6719 223,770.0078 238,770.0078 L248,770.0078 " fill="none" style="stroke:#A80036;stroke-width:1.0;"/><path d="M95,601.1172 L105,601.1172 C120,601.1172 120,516.6719 135,516.6719 L145,516.6719 " fill="none" style="stroke:#A80036;stroke-width:1.0;"/><rect fill="#B22222" filter="url(#f1bg3grg7euiju)" height="36.2969" rx="12.5" ry="12.5" style="stroke:#A80036;stroke-width:1.5;" width="101" x="145" y="977.0469"/><text fill="#FFFFFF" font-family="sans-serif" font-size="14" lengthAdjust="spacing" textLength="73" x="155" y="1000.042">Servidores</text><rect fill="#FFA500" filter="url(#f1bg3grg7euiju)" height="36.2969" rx="12.5" ry="12.5" style="stroke:#A80036;stroke-width:1.5;" width="154" x="296" y="836.3047"/><text fill="#000000" font-family="sans-serif" font-size="14" lengthAdjust="spacing" textLength="126" x="306" y="859.2998">Servlet Containers</text><rect fill="#CD5C5C" filter="url(#f1bg3grg7euiju)" height="36.2969" rx="12.5" ry="12.5" style="stroke:#A80036;stroke-width:1.5;" width="76" x="500" y="808.1563"/><text fill="#000000" font-family="sans-serif" font-size="14" lengthAdjust="spacing" textLength="52" x="510" y="831.1514">Tomcat</text><path d="M450,854.4531 L460,854.4531 C475,854.4531 475,826.3047 490,826.3047 L500,826.3047 " fill="none" style="stroke:#A80036;stroke-width:1.0;"/><rect fill="#CD5C5C" filter="url(#f1bg3grg7euiju)" height="36.2969" rx="12.5" ry="12.5" style="stroke:#A80036;stroke-width:1.5;" width="53" x="500" y="864.4531"/><text fill="#000000" font-family="sans-serif" font-size="14" lengthAdjust="spacing" textLength="29" x="510" y="887.4482">Jetty</text><path d="M450,854.4531 L460,854.4531 C475,854.4531 475,882.6016 490,882.6016 L500,882.6016 " fill="none" style="stroke:#A80036;stroke-width:1.0;"/><path d="M246,995.1953 L256,995.1953 C271,995.1953 271,854.4531 286,854.4531 L296,854.4531 " fill="none" style="stroke:#A80036;stroke-width:1.0;"/><rect fill="#FFA500" filter="url(#f1bg3grg7euiju)" height="36.2969" rx="12.5" ry="12.5" style="stroke:#A80036;stroke-width:1.5;" width="126" x="296" y="1033.3438"/><text fill="#000000" font-family="sans-serif" font-size="14" lengthAdjust="spacing" textLength="98" x="306" y="1056.3389">Servidores JEE</text><rect fill="#CD5C5C" filter="url(#f1bg3grg7euiju)" height="36.2969" rx="12.5" ry="12.5" style="stroke:#A80036;stroke-width:1.5;" width="73" x="472" y="920.75"/><text fill="#000000" font-family="sans-serif" font-size="14" lengthAdjust="spacing" textLength="45" x="482" y="943.7451">Payara</text><path d="M422,1051.4922 L432,1051.4922 C447,1051.4922 447,938.8984 462,938.8984 L472,938.8984 " fill="none" style="stroke:#A80036;stroke-width:1.0;"/><rect fill="#CD5C5C" filter="url(#f1bg3grg7euiju)" height="36.2969" rx="12.5" ry="12.5" style="stroke:#A80036;stroke-width:1.5;" width="86" x="472" y="977.0469"/><text fill="#000000" font-family="sans-serif" font-size="14" lengthAdjust="spacing" textLength="62" x="482" y="1000.042">Glassfish</text><path d="M422,1051.4922 L432,1051.4922 C447,1051.4922 447,995.1953 462,995.1953 L472,995.1953 " fill="none" style="stroke:#A80036;stroke-width:1.0;"/><rect fill="#CD5C5C" filter="url(#f1bg3grg7euiju)" height="36.2969" rx="12.5" ry="12.5" style="stroke:#A80036;stroke-width:1.5;" width="70" x="472" y="1033.3438"/><text fill="#000000" font-family="sans-serif" font-size="14" lengthAdjust="spacing" textLength="46" x="482" y="1056.3389">WildFly</text><path d="M422,1051.4922 L432,1051.4922 C447,1051.4922 447,1051.4922 462,1051.4922 L472,1051.4922 " fill="none" style="stroke:#A80036;stroke-width:1.0;"/><rect fill="#CD5C5C" filter="url(#f1bg3grg7euiju)" height="36.2969" rx="12.5" ry="12.5" style="stroke:#A80036;stroke-width:1.5;" width="87" x="472" y="1089.6406"/><text fill="#000000" font-family="sans-serif" font-size="14" lengthAdjust="spacing" textLength="67" x="482" y="1112.6357">WebLogic</text><path d="M422,1051.4922 L432,1051.4922 C447,1051.4922 447,1107.7891 462,1107.7891 L472,1107.7891 " fill="none" style="stroke:#A80036;stroke-width:1.0;"/><rect fill="#CD5C5C" filter="url(#f1bg3grg7euiju)" height="36.2969" rx="12.5" ry="12.5" style="stroke:#A80036;stroke-width:1.5;" width="117" x="472" y="1145.9375"/><text fill="#000000" font-family="sans-serif" font-size="14" lengthAdjust="spacing" textLength="81" x="482" y="1168.9326">WebSphere</text><path d="M422,1051.4922 L432,1051.4922 C447,1051.4922 447,1164.0859 462,1164.0859 L472,1164.0859 " fill="none" style="stroke:#A80036;stroke-width:1.0;"/><path d="M246,995.1953 L256,995.1953 C271,995.1953 271,1051.4922 286,1051.4922 L296,1051.4922 " fill="none" style="stroke:#A80036;stroke-width:1.0;"/><path d="M95,601.1172 L105,601.1172 C120,601.1172 120,995.1953 135,995.1953 L145,995.1953 " fill="none" style="stroke:#A80036;stroke-width:1.0;"/><!--MD5=[0c5a0a29e5dccc056b42b9370db577c1]
@startmindmap 
*[#black] <color:white>Java Web 
**[#FireBrick] <color:white>Servlets   
***[#Orange] Métodos HTTP 
***[#Orange] Request 
***[#Orange] Response 
***[#Orange] Dispatch and Forward       
**[#FireBrick] <color:white>J S P 
***[#Orange] Expression Language   
***[#Orange] J S T L 
****[#IndianRed] Core  
****[#IndianRed] Functions
****[#IndianRed] I18N 
****[#IndianRed] SQL 
****[#IndianRed] XML 
***[#Orange] Directivas 
***[#Orange] Declaraciones 
***[#Orange] Scriptlets 
***[#Orange] Expressions   
**[#FireBrick] <color:white>Servidores  
***[#Orange] Servlet Containers  
****[#IndianRed] Tomcat 
****[#IndianRed] Jetty 
***[#Orange] Servidores JEE  
****[#IndianRed] Payara  
****[#IndianRed] Glassfish 
****[#IndianRed] WildFly 
****[#IndianRed] WebLogic
****[#IndianRed] WebSphere    
@endmindmap

PlantUML version 1.2021.00(Sun Jan 10 07:25:05 CLST 2021)
(MIT source distribution)
Java Runtime: OpenJDK Runtime Environment
JVM: OpenJDK 64-Bit Server VM
Default Encoding: UTF-8
Language: en
Country: US
--></g></svg>